ffmpeg version 4.4.2-0ubuntu0.22.04.1 Copyright (c) 2000-2021 the FFmpeg developers
  built with gcc 11 (Ubuntu 11.2.0-19ubuntu1)
  configuration: --prefix=/usr --extra-version=0ubuntu0.22.04.1 --toolchain=hardened --libdir=/usr/lib/x86_64-linux-gnu --incdir=/usr/include/x86_64-linux-gnu --arch=amd64 --enable-gpl --disable-stripping --enable-gnutls --enable-ladspa --enable-libaom --enable-libass --enable-libbluray --enable-libbs2b --enable-libcaca --enable-libcdio --enable-libcodec2 --enable-libdav1d --enable-libflite --enable-libfontconfig --enable-libfreetype --enable-libfribidi --enable-libgme --enable-libgsm --enable-libjack --enable-libmp3lame --enable-libmysofa --enable-libopenjpeg --enable-libopenmpt --enable-libopus --enable-libpulse --enable-librabbitmq --enable-librubberband --enable-libshine --enable-libsnappy --enable-libsoxr --enable-libspeex --enable-libsrt --enable-libssh --enable-libtheora --enable-libtwolame --enable-libvidstab --enable-libvorbis --enable-libvpx --enable-libwebp --enable-libx265 --enable-libxml2 --enable-libxvid --enable-libzimg --enable-libzmq --enable-libzvbi --enable-lv2 --enable-omx --enable-openal --enable-opencl --enable-opengl --enable-sdl2 --enable-pocketsphinx --enable-librsvg --enable-libmfx --enable-libdc1394 --enable-libdrm --enable-libiec61883 --enable-chromaprint --enable-frei0r --enable-libx264 --enable-shared
  libavutil      56. 70.100 / 56. 70.100
  libavcodec     58.134.100 / 58.134.100
  libavformat    58. 76.100 / 58. 76.100
  libavdevice    58. 13.100 / 58. 13.100
  libavfilter     7.110.100 /  7.110.100
  libswscale      5.  9.100 /  5.  9.100
  libswresample   3.  9.100 /  3.  9.100
  libpostproc    55.  9.100 / 55.  9.100
[mov,mp4,m4a,3gp,3g2,mj2 @ 0x59adbc741cc0] Auto-inserting h264_mp4toannexb bitstream filter
Input #0, concat, from '/home/paulo/sportscuts/agents/TakeVideoProject/concat_list.txt':
  Duration: N/A, start: 0.000000, bitrate: 11178 kb/s
  Stream #0:0(und): Video: h264 (Constrained Baseline) (avc1 / 0x31637661), yuv420p, 1280x720, 11178 kb/s, 10 fps, 10 tbr, 10240 tbn, 20 tbc
    Metadata:
      handler_name    : VideoHandler
      vendor_id       : [0][0][0][0]
Stream mapping:
  Stream #0:0 -> #0:0 (h264 (native) -> h264 (libx264))
Press [q] to stop, [?] for help
[libx264 @ 0x59adbc769a80] using cpu capabilities: MMX2 SSE2Fast LZCNT SSSE3 SSE4.2
[libx264 @ 0x59adbc769a80] profile Constrained Baseline, level 3.1, 4:2:0, 8-bit
[libx264 @ 0x59adbc769a80] 264 - core 163 r3060 5db6aa6 - H.264/MPEG-4 AVC codec - Copyleft 2003-2021 - http://www.videolan.org/x264.html - options: cabac=0 ref=1 deblock=0:0:0 analyse=0:0 me=dia subme=0 psy=1 psy_rd=1.00:0.00 mixed_ref=0 me_range=16 chroma_me=1 trellis=0 8x8dct=0 cqm=0 deadzone=21,11 fast_pskip=1 chroma_qp_offset=0 threads=3 lookahead_threads=1 sliced_threads=0 nr=0 decimate=1 interlaced=0 bluray_compat=0 constrained_intra=0 bframes=0 weightp=0 keyint=250 keyint_min=10 scenecut=0 intra_refresh=0 rc=crf mbtree=0 crf=20.0 qcomp=0.60 qpmin=0 qpmax=69 qpstep=4 ip_ratio=1.40 aq=0
Output #0, mp4, to '/home/paulo/sportscuts/agents/TakeVideoProject/pending/2_clip_20250901_201233.mp4':
  Metadata:
    encoder         : Lavf58.76.100
  Stream #0:0(und): Video: h264 (avc1 / 0x31637661), yuv420p(progressive), 1280x720, q=2-31, 10 fps, 10240 tbn
    Metadata:
      handler_name    : VideoHandler
      vendor_id       : [0][0][0][0]
      encoder         : Lavc58.134.100 libx264
    Side data:
      cpb: bitrate max/min/avg: 0/0/0 buffer size: 0 vbv_delay: N/A
frame=    1 fps=0.0 q=0.0 size=       0kB time=00:00:00.00 bitrate=N/A speed=   0x    frame=   10 fps=0.0 q=21.0 size=    1024kB time=00:00:00.50 bitrate=16774.7kbits/s speed=0.895x    frame=   21 fps= 19 q=21.0 size=    2560kB time=00:00:01.60 bitrate=13106.6kbits/s speed=1.48x    frame=   29 fps= 18 q=21.0 size=    3840kB time=00:00:02.40 bitrate=13106.8kbits/s speed=1.48x    frame=   35 fps= 16 q=21.0 size=    4864kB time=00:00:03.00 bitrate=13281.7kbits/s speed=1.36x    frame=   45 fps= 16 q=21.0 size=    6144kB time=00:00:04.00 bitrate=12582.7kbits/s speed=1.46x    frame=   54 fps= 16 q=21.0 size=    7680kB time=00:00:04.90 bitrate=12839.5kbits/s speed=1.47x    frame=   63 fps= 16 q=21.0 size=    8960kB time=00:00:05.80 bitrate=12655.1kbits/s speed=1.51x    frame=   69 fps= 16 q=21.0 size=    9984kB time=00:00:06.40 bitrate=12779.4kbits/s speed=1.46x    frame=   77 fps= 16 q=20.0 size=   11264kB time=00:00:07.20 bitrate=12815.8kbits/s speed=1.47x    frame=   87 fps= 16 q=21.0 size=   12544kB time=00:00:08.20 bitrate=12531.7kbits/s speed= 1.5x    frame=   93 fps= 15 q=21.0 size=   13568kB time=00:00:08.80 bitrate=12630.5kbits/s speed=1.47x    frame=  104 fps= 16 q=21.0 size=   15104kB time=00:00:09.90 bitrate=12498.1kbits/s speed=1.51x    frame=  109 fps= 15 q=21.0 size=   15872kB time=00:00:10.40 bitrate=12502.2kbits/s speed=1.46x    frame=  113 fps= 15 q=21.0 size=   16640kB time=00:00:10.80 bitrate=12621.7kbits/s speed=1.41x    frame=  117 fps= 14 q=21.0 size=   17152kB time=00:00:11.20 bitrate=12545.4kbits/s speed=1.37x    frame=  127 fps= 15 q=21.0 size=   18688kB time=00:00:12.20 bitrate=12548.5kbits/s speed= 1.4x    frame=  141 fps= 15 q=21.0 size=   20992kB time=00:00:13.60 bitrate=12644.5kbits/s speed=1.47x    frame=  151 fps= 15 q=21.0 size=   22528kB time=00:00:14.60 bitrate=12640.3kbits/s speed=1.49x    frame=  163 fps= 16 q=21.0 size=   24320kB time=00:00:15.80 bitrate=12609.4kbits/s speed=1.52x    frame=  174 fps= 16 q=20.0 size=   25856kB time=00:00:16.90 bitrate=12533.2kbits/s speed=1.55x    frame=  180 fps= 16 q=21.0 size=   26624kB time=00:00:17.50 bitrate=12463.0kbits/s speed=1.53x    frame=  195 fps= 16 q=18.0 size=   28928kB time=00:00:19.00 bitrate=12472.5kbits/s speed=1.58x    frame=  204 fps= 16 q=21.0 size=   30208kB time=00:00:19.90 bitrate=12435.3kbits/s speed=1.59x    frame=  224 fps= 17 q=21.0 size=   33024kB time=00:00:21.90 bitrate=12353.0kbits/s speed=1.67x    frame=  231 fps= 17 q=21.0 size=   34304kB time=00:00:22.60 bitrate=12434.4kbits/s speed=1.66x    [mov,mp4,m4a,3gp,3g2,mj2 @ 0x59adbc741cc0] Auto-inserting h264_mp4toannexb bitstream filter
frame=  250 fps= 18 q=20.0 size=   37120kB time=00:00:24.50 bitrate=12411.7kbits/s speed=1.73x    frame=  267 fps= 18 q=21.0 size=   39936kB time=00:00:26.20 bitrate=12486.8kbits/s speed=1.78x    frame=  283 fps= 19 q=21.0 size=   42240kB time=00:00:27.80 bitrate=12447.1kbits/s speed=1.83x    frame=  294 fps= 19 q=21.0 size=   43776kB time=00:00:28.90 bitrate=12408.7kbits/s speed=1.83x    [mp4 @ 0x59adbc7ba980] Starting second pass: moving the moov atom to the beginning of the file
frame=  300 fps= 18 q=-1.0 Lsize=   45427kB time=00:00:29.90 bitrate=12446.1kbits/s speed=1.84x    
video:45425kB audio:0kB subtitle:0kB other streams:0kB global headers:0kB muxing overhead: 0.005312%
[libx264 @ 0x59adbc769a80] frame I:2     Avg QP:17.50  size:258244
[libx264 @ 0x59adbc769a80] frame P:298   Avg QP:20.79  size:154355
[libx264 @ 0x59adbc769a80] mb I  I16..4: 100.0%  0.0%  0.0%
[libx264 @ 0x59adbc769a80] mb P  I16..4: 65.8%  0.0%  0.0%  P16..4: 32.8%  0.0%  0.0%  0.0%  0.0%    skip: 1.4%
[libx264 @ 0x59adbc769a80] coded y,uvDC,uvAC intra: 94.9% 96.2% 78.9% inter: 77.8% 78.7% 13.0%
[libx264 @ 0x59adbc769a80] i16 v,h,dc,p:  8%  6% 73% 12%
[libx264 @ 0x59adbc769a80] i8c dc,h,v,p: 44% 25% 18% 13%
[libx264 @ 0x59adbc769a80] kb/s:12403.82
ffmpeg version 4.4.2-0ubuntu0.22.04.1 Copyright (c) 2000-2021 the FFmpeg developers
  built with gcc 11 (Ubuntu 11.2.0-19ubuntu1)
  configuration: --prefix=/usr --extra-version=0ubuntu0.22.04.1 --toolchain=hardened --libdir=/usr/lib/x86_64-linux-gnu --incdir=/usr/include/x86_64-linux-gnu --arch=amd64 --enable-gpl --disable-stripping --enable-gnutls --enable-ladspa --enable-libaom --enable-libass --enable-libbluray --enable-libbs2b --enable-libcaca --enable-libcdio --enable-libcodec2 --enable-libdav1d --enable-libflite --enable-libfontconfig --enable-libfreetype --enable-libfribidi --enable-libgme --enable-libgsm --enable-libjack --enable-libmp3lame --enable-libmysofa --enable-libopenjpeg --enable-libopenmpt --enable-libopus --enable-libpulse --enable-librabbitmq --enable-librubberband --enable-libshine --enable-libsnappy --enable-libsoxr --enable-libspeex --enable-libsrt --enable-libssh --enable-libtheora --enable-libtwolame --enable-libvidstab --enable-libvorbis --enable-libvpx --enable-libwebp --enable-libx265 --enable-libxml2 --enable-libxvid --enable-libzimg --enable-libzmq --enable-libzvbi --enable-lv2 --enable-omx --enable-openal --enable-opencl --enable-opengl --enable-sdl2 --enable-pocketsphinx --enable-librsvg --enable-libmfx --enable-libdc1394 --enable-libdrm --enable-libiec61883 --enable-chromaprint --enable-frei0r --enable-libx264 --enable-shared
  libavutil      56. 70.100 / 56. 70.100
  libavcodec     58.134.100 / 58.134.100
  libavformat    58. 76.100 / 58. 76.100
  libavdevice    58. 13.100 / 58. 13.100
  libavfilter     7.110.100 /  7.110.100
  libswscale      5.  9.100 /  5.  9.100
  libswresample   3.  9.100 /  3.  9.100
  libpostproc    55.  9.100 / 55.  9.100
Input #0, mov,mp4,m4a,3gp,3g2,mj2, from '/home/paulo/sportscuts/agents/TakeVideoProject/pending/2_clip_20250901_201233.mp4':
  Metadata:
    major_brand     : isom
    minor_version   : 512
    compatible_brands: isomiso2avc1mp41
    encoder         : Lavf58.76.100
  Duration: 00:00:30.00, start: 0.000000, bitrate: 12404 kb/s
  Stream #0:0(und): Video: h264 (Constrained Baseline) (avc1 / 0x31637661), yuv420p, 1280x720, 12403 kb/s, 10 fps, 10 tbr, 10240 tbn, 20 tbc (default)
    Metadata:
      handler_name    : VideoHandler
      vendor_id       : [0][0][0][0]
Stream mapping:
  Stream #0:0 -> #0:0 (h264 (native) -> h264 (libx264))
Press [q] to stop, [?] for help
[libx264 @ 0x62f8d4c8be80] using cpu capabilities: MMX2 SSE2Fast LZCNT SSSE3 SSE4.2
[libx264 @ 0x62f8d4c8be80] profile Constrained Baseline, level 4.0, 4:2:0, 8-bit
[libx264 @ 0x62f8d4c8be80] 264 - core 163 r3060 5db6aa6 - H.264/MPEG-4 AVC codec - Copyleft 2003-2021 - http://www.videolan.org/x264.html - options: cabac=0 ref=1 deblock=0:0:0 analyse=0:0 me=dia subme=0 psy=1 psy_rd=1.00:0.00 mixed_ref=0 me_range=16 chroma_me=1 trellis=0 8x8dct=0 cqm=0 deadzone=21,11 fast_pskip=1 chroma_qp_offset=0 threads=3 lookahead_threads=1 sliced_threads=0 nr=0 decimate=1 interlaced=0 bluray_compat=0 constrained_intra=0 bframes=0 weightp=0 keyint=250 keyint_min=10 scenecut=0 intra_refresh=0 rc=crf mbtree=0 crf=20.0 qcomp=0.60 qpmin=0 qpmax=69 qpstep=4 ip_ratio=1.40 aq=0
Output #0, mp4, to '/home/paulo/sportscuts/agents/TakeVideoProject/pending/vertical_2_clip_20250901_201233.mp4':
  Metadata:
    major_brand     : isom
    minor_version   : 512
    compatible_brands: isomiso2avc1mp41
    encoder         : Lavf58.76.100
  Stream #0:0(und): Video: h264 (avc1 / 0x31637661), yuv420p(tv, progressive), 1080x1920, q=2-31, 10 fps, 10240 tbn (default)
    Metadata:
      handler_name    : VideoHandler
      vendor_id       : [0][0][0][0]
      encoder         : Lavc58.134.100 libx264
    Side data:
      cpb: bitrate max/min/avg: 0/0/0 buffer size: 0 vbv_delay: N/A
frame=    1 fps=0.0 q=0.0 size=       0kB time=00:00:00.00 bitrate=N/A speed=   0x    frame=   14 fps=0.0 q=21.0 size=    2816kB time=00:00:00.90 bitrate=25629.5kbits/s speed=1.68x    frame=   22 fps= 20 q=21.0 size=    4864kB time=00:00:01.70 bitrate=23437.6kbits/s speed=1.52x    frame=   32 fps= 19 q=21.0 size=    7424kB time=00:00:02.70 bitrate=22524.3kbits/s speed=1.62x    frame=   42 fps= 19 q=19.0 size=   10240kB time=00:00:03.70 bitrate=22671.4kbits/s speed=1.67x    frame=   49 fps= 18 q=21.0 size=   11776kB time=00:00:04.40 bitrate=21924.4kbits/s speed=1.61x    frame=   59 fps= 17 q=21.0 size=   14592kB time=00:00:05.40 bitrate=22136.3kbits/s speed=1.59x    frame=   66 fps= 17 q=21.0 size=   16384kB time=00:00:06.10 bitrate=22002.6kbits/s speed=1.56x    frame=   69 fps= 15 q=21.0 size=   17152kB time=00:00:06.40 bitrate=21954.3kbits/s speed=1.41x    frame=   77 fps= 15 q=20.0 size=   19200kB time=00:00:07.20 bitrate=21845.1kbits/s speed= 1.4x    frame=   86 fps= 15 q=21.0 size=   21504kB time=00:00:08.10 bitrate=21748.0kbits/s speed=1.42x    frame=   96 fps= 15 q=21.0 size=   24064kB time=00:00:09.10 bitrate=21662.7kbits/s speed=1.46x    frame=  105 fps= 16 q=21.0 size=   26368kB time=00:00:10.00 bitrate=21600.5kbits/s speed=1.48x    frame=  115 fps= 16 q=21.0 size=   29184kB time=00:00:11.00 bitrate=21734.0kbits/s speed=1.51x    frame=  124 fps= 16 q=20.0 size=   31488kB time=00:00:11.90 bitrate=21676.3kbits/s speed=1.51x    frame=  133 fps= 16 q=21.0 size=   33792kB time=00:00:12.80 bitrate=21626.7kbits/s speed=1.51x    frame=  140 fps= 16 q=21.0 size=   35584kB time=00:00:13.50 bitrate=21592.8kbits/s speed= 1.5x    frame=  145 fps= 15 q=21.0 size=   36864kB time=00:00:14.00 bitrate=21570.6kbits/s speed=1.47x    frame=  148 fps= 15 q=21.0 size=   37888kB time=00:00:14.30 bitrate=21704.7kbits/s speed=1.41x    frame=  152 fps= 14 q=21.0 size=   38912kB time=00:00:14.70 bitrate=21684.7kbits/s speed=1.36x    frame=  154 fps= 13 q=20.0 size=   39424kB time=00:00:14.90 bitrate=21675.1kbits/s speed=1.27x    frame=  159 fps= 13 q=19.0 size=   40704kB time=00:00:15.40 bitrate=21652.3kbits/s speed=1.25x    frame=  166 fps= 13 q=21.0 size=   42496kB time=00:00:16.10 bitrate=21622.7kbits/s speed=1.24x    frame=  173 fps= 13 q=18.0 size=   44032kB time=00:00:16.80 bitrate=21470.7kbits/s speed=1.24x    frame=  178 fps= 13 q=21.0 size=   45312kB time=00:00:17.30 bitrate=21456.3kbits/s speed=1.22x    frame=  183 fps= 12 q=21.0 size=   46848kB time=00:00:17.80 bitrate=21560.5kbits/s speed=1.18x    frame=  188 fps= 12 q=21.0 size=   47872kB time=00:00:18.30 bitrate=21429.8kbits/s speed=1.18x    frame=  191 fps= 12 q=21.0 size=   48896kB time=00:00:18.60 bitrate=21535.2kbits/s speed=1.16x    frame=  196 fps= 12 q=20.0 size=   49920kB time=00:00:19.10 bitrate=21410.6kbits/s speed=1.15x    frame=  207 fps= 12 q=21.0 size=   52736kB time=00:00:20.20 bitrate=21386.7kbits/s speed=1.17x    frame=  213 fps= 12 q=21.0 size=   54272kB time=00:00:20.80 bitrate=21374.7kbits/s speed=1.17x    frame=  221 fps= 12 q=21.0 size=   56320kB time=00:00:21.60 bitrate=21359.8kbits/s speed=1.17x    frame=  227 fps= 12 q=21.0 size=   57856kB time=00:00:22.20 bitrate=21349.3kbits/s speed=1.17x    frame=  231 fps= 12 q=21.0 size=   58880kB time=00:00:22.60 bitrate=21342.6kbits/s speed=1.16x    frame=  235 fps= 12 q=21.0 size=   59904kB time=00:00:23.00 bitrate=21336.2kbits/s speed=1.15x    frame=  239 fps= 12 q=21.0 size=   61184kB time=00:00:23.40 bitrate=21419.6kbits/s speed=1.14x    frame=  248 fps= 12 q=21.0 size=   63488kB time=00:00:24.30 bitrate=21403.0kbits/s speed=1.15x    frame=  254 fps= 12 q=21.0 size=   65024kB time=00:00:24.90 bitrate=21392.6kbits/s speed=1.15x    frame=  261 fps= 12 q=21.0 size=   67072kB time=00:00:25.60 bitrate=21463.0kbits/s speed=1.15x    frame=  267 fps= 12 q=21.0 size=   68608kB time=00:00:26.20 bitrate=21451.7kbits/s speed=1.15x    frame=  278 fps= 12 q=21.0 size=   71168kB time=00:00:27.30 bitrate=21355.6kbits/s speed=1.17x    frame=  281 fps= 12 q=21.0 size=   71936kB time=00:00:27.60 bitrate=21351.4kbits/s speed=1.14x    frame=  283 fps= 11 q=21.0 size=   72448kB time=00:00:27.80 bitrate=21348.6kbits/s speed=1.13x    frame=  287 fps= 11 q=21.0 size=   73728kB time=00:00:28.20 bitrate=21417.7kbits/s speed=1.11x    frame=  290 fps= 11 q=21.0 size=   74496kB time=00:00:28.50 bitrate=21413.0kbits/s speed= 1.1x    frame=  293 fps= 11 q=21.0 size=   75264kB time=00:00:28.80 bitrate=21408.4kbits/s speed=1.08x    frame=  298 fps= 11 q=21.0 size=   76544kB time=00:00:29.30 bitrate=21400.9kbits/s speed=1.08x    [mp4 @ 0x62f8d4c679c0] Starting second pass: moving the moov atom to the beginning of the file
frame=  300 fps= 11 q=-1.0 Lsize=   77994kB time=00:00:29.90 bitrate=21368.8kbits/s speed=1.07x    
video:77992kB audio:0kB subtitle:0kB other streams:0kB global headers:0kB muxing overhead: 0.003467%
[libx264 @ 0x62f8d4c8be80] frame I:2     Avg QP:17.50  size:430198
[libx264 @ 0x62f8d4c8be80] frame P:298   Avg QP:20.74  size:265109
[libx264 @ 0x62f8d4c8be80] mb I  I16..4: 100.0%  0.0%  0.0%
[libx264 @ 0x62f8d4c8be80] mb P  I16..4: 56.8%  0.0%  0.0%  P16..4: 41.7%  0.0%  0.0%  0.0%  0.0%    skip: 1.5%
[libx264 @ 0x62f8d4c8be80] coded y,uvDC,uvAC intra: 88.6% 90.3% 62.2% inter: 83.7% 83.1% 16.8%
[libx264 @ 0x62f8d4c8be80] i16 v,h,dc,p: 26%  9% 52% 13%
[libx264 @ 0x62f8d4c8be80] i8c dc,h,v,p: 38% 12% 37% 13%
[libx264 @ 0x62f8d4c8be80] kb/s:21296.76
ffmpeg version 4.4.2-0ubuntu0.22.04.1 Copyright (c) 2000-2021 the FFmpeg developers
  built with gcc 11 (Ubuntu 11.2.0-19ubuntu1)
  configuration: --prefix=/usr --extra-version=0ubuntu0.22.04.1 --toolchain=hardened --libdir=/usr/lib/x86_64-linux-gnu --incdir=/usr/include/x86_64-linux-gnu --arch=amd64 --enable-gpl --disable-stripping --enable-gnutls --enable-ladspa --enable-libaom --enable-libass --enable-libbluray --enable-libbs2b --enable-libcaca --enable-libcdio --enable-libcodec2 --enable-libdav1d --enable-libflite --enable-libfontconfig --enable-libfreetype --enable-libfribidi --enable-libgme --enable-libgsm --enable-libjack --enable-libmp3lame --enable-libmysofa --enable-libopenjpeg --enable-libopenmpt --enable-libopus --enable-libpulse --enable-librabbitmq --enable-librubberband --enable-libshine --enable-libsnappy --enable-libsoxr --enable-libspeex --enable-libsrt --enable-libssh --enable-libtheora --enable-libtwolame --enable-libvidstab --enable-libvorbis --enable-libvpx --enable-libwebp --enable-libx265 --enable-libxml2 --enable-libxvid --enable-libzimg --enable-libzmq --enable-libzvbi --enable-lv2 --enable-omx --enable-openal --enable-opencl --enable-opengl --enable-sdl2 --enable-pocketsphinx --enable-librsvg --enable-libmfx --enable-libdc1394 --enable-libdrm --enable-libiec61883 --enable-chromaprint --enable-frei0r --enable-libx264 --enable-shared
  libavutil      56. 70.100 / 56. 70.100
  libavcodec     58.134.100 / 58.134.100
  libavformat    58. 76.100 / 58. 76.100
  libavdevice    58. 13.100 / 58. 13.100
  libavfilter     7.110.100 /  7.110.100
  libswscale      5.  9.100 /  5.  9.100
  libswresample   3.  9.100 /  3.  9.100
  libpostproc    55.  9.100 / 55.  9.100
Input #0, mov,mp4,m4a,3gp,3g2,mj2, from '/home/paulo/sportscuts/agents/TakeVideoProject/pending/2_clip_20250901_201233.mp4':
  Metadata:
    major_brand     : isom
    minor_version   : 512
    compatible_brands: isomiso2avc1mp41
    encoder         : Lavf58.76.100
  Duration: 00:00:30.00, start: 0.000000, bitrate: 21297 kb/s
  Stream #0:0(und): Video: h264 (Constrained Baseline) (avc1 / 0x31637661), yuv420p, 1080x1920, 21296 kb/s, 10 fps, 10 tbr, 10240 tbn, 20 tbc (default)
    Metadata:
      handler_name    : VideoHandler
      vendor_id       : [0][0][0][0]
Input #1, png_pipe, from '/home/paulo/sportscuts/agents/TakeVideoProject/template.png':
  Duration: N/A, bitrate: N/A
  Stream #1:0: Video: png, rgba(pc), 1024x1536, 25 fps, 25 tbr, 25 tbn, 25 tbc
Stream mapping:
  Stream #0:0 (h264) -> overlay:main
  Stream #1:0 (png) -> overlay:overlay
  overlay -> Stream #0:0 (libx264)
Press [q] to stop, [?] for help
[libx264 @ 0x5d9470a3a400] using cpu capabilities: MMX2 SSE2Fast LZCNT SSSE3 SSE4.2
[libx264 @ 0x5d9470a3a400] profile High, level 4.0, 4:2:0, 8-bit
[libx264 @ 0x5d9470a3a400] 264 - core 163 r3060 5db6aa6 - H.264/MPEG-4 AVC codec - Copyleft 2003-2021 - http://www.videolan.org/x264.html - options: cabac=1 ref=3 deblock=1:0:0 analyse=0x3:0x113 me=hex subme=7 psy=1 psy_rd=1.00:0.00 mixed_ref=1 me_range=16 chroma_me=1 trellis=1 8x8dct=1 cqm=0 deadzone=21,11 fast_pskip=1 chroma_qp_offset=-2 threads=3 lookahead_threads=1 sliced_threads=0 nr=0 decimate=1 interlaced=0 bluray_compat=0 constrained_intra=0 bframes=3 b_pyramid=2 b_adapt=1 b_bias=0 direct=1 weightb=1 open_gop=0 weightp=2 keyint=250 keyint_min=10 scenecut=40 intra_refresh=0 rc_lookahead=40 rc=crf mbtree=1 crf=23.0 qcomp=0.60 qpmin=0 qpmax=69 qpstep=4 ip_ratio=1.40 aq=1:1.00
Output #0, mp4, to '/home/paulo/sportscuts/agents/TakeVideoProject/pending/overlay_2_clip_20250901_201233.mp4':
  Metadata:
    major_brand     : isom
    minor_version   : 512
    compatible_brands: isomiso2avc1mp41
    encoder         : Lavf58.76.100
  Stream #0:0: Video: h264 (avc1 / 0x31637661), yuv420p(progressive), 1080x1920, q=2-31, 10 fps, 10240 tbn (default)
    Metadata:
      encoder         : Lavc58.134.100 libx264
    Side data:
      cpb: bitrate max/min/avg: 0/0/0 buffer size: 0 vbv_delay: N/A
frame=    1 fps=0.0 q=0.0 size=       0kB time=00:00:00.00 bitrate=N/A speed=   0x    frame=   11 fps=0.0 q=0.0 size=       0kB time=00:00:00.00 bitrate=N/A speed=   0x    frame=   18 fps= 15 q=0.0 size=       0kB time=00:00:00.00 bitrate=N/A speed=   0x    frame=   26 fps= 15 q=0.0 size=       0kB time=00:00:00.00 bitrate=N/A speed=   0x    frame=   33 fps= 14 q=0.0 size=       0kB time=00:00:00.00 bitrate=N/A speed=   0x    frame=   38 fps= 13 q=0.0 size=       0kB time=00:00:00.00 bitrate=N/A speed=   0x    frame=   43 fps= 12 q=0.0 size=       0kB time=00:00:00.00 bitrate=N/A speed=   0x    frame=   44 fps= 11 q=0.0 size=       0kB time=00:00:00.00 bitrate=N/A speed=   0x    frame=   47 fps=9.3 q=0.0 size=       0kB time=00:00:00.00 bitrate=N/A speed=   0x    frame=   50 fps=7.9 q=25.0 size=     256kB time=00:00:00.00 bitrate=21403428.6kbits/s speed=1.55e-05x    frame=   51 fps=7.1 q=25.0 size=     512kB time=00:00:00.10 bitrate=41905.8kbits/s speed=0.0139x    frame=   52 fps=6.5 q=25.0 size=     768kB time=00:00:00.20 bitrate=31443.8kbits/s speed=0.0248x    frame=   55 fps=5.4 q=25.0 size=    1024kB time=00:00:00.50 bitrate=16774.7kbits/s speed=0.0492x    frame=   56 fps=5.1 q=25.0 size=    1280kB time=00:00:00.60 bitrate=17474.1kbits/s speed=0.055x    frame=   58 fps=5.1 q=25.0 size=    1536kB time=00:00:00.80 bitrate=15727.2kbits/s speed=0.0697x    frame=   59 fps=4.1 q=25.0 size=    1536kB time=00:00:00.90 bitrate=13979.9kbits/s speed=0.0619x    frame=   61 fps=4.0 q=25.0 size=    2048kB time=00:00:01.10 bitrate=15251.0kbits/s speed=0.0722x    frame=   63 fps=3.5 q=25.0 size=    2304kB time=00:00:01.30 bitrate=14517.9kbits/s speed=0.0724x    frame=   64 fps=3.4 q=25.0 size=    2304kB time=00:00:01.40 bitrate=13481.0kbits/s speed=0.0733x    frame=   66 fps=3.2 q=25.0 size=    2560kB time=00:00:01.60 bitrate=13106.6kbits/s speed=0.0767x    frame=   67 fps=2.9 q=25.0 size=    2816kB time=00:00:01.70 bitrate=13569.3kbits/s speed=0.0745x    frame=   69 fps=2.8 q=25.0 size=    3072kB time=00:00:01.90 bitrate=13244.7kbits/s speed=0.0784x    frame=   71 fps=2.9 q=25.0 size=    3328kB time=00:00:02.10 bitrate=12981.9kbits/s speed=0.0847x    frame=   72 fps=2.5 q=25.0 size=    3584kB time=00:00:02.20 bitrate=13345.1kbits/s speed=0.0775x    frame=   75 fps=2.5 q=25.0 size=    3840kB time=00:00:02.50 bitrate=12582.6kbits/s speed=0.0839x    frame=   76 fps=2.5 q=25.0 size=    4096kB time=00:00:02.60 bitrate=12905.2kbits/s speed=0.084x    frame=   79 fps=2.5 q=25.0 size=    4608kB time=00:00:02.90 bitrate=13016.5kbits/s speed=0.0902x    frame=   81 fps=2.5 q=25.0 size=    4864kB time=00:00:03.10 bitrate=12853.2kbits/s speed=0.0941x    frame=   82 fps=2.4 q=25.0 size=    4864kB time=00:00:03.20 bitrate=12451.6kbits/s speed=0.0939x    frame=   84 fps=2.4 q=25.0 size=    5120kB time=00:00:03.40 bitrate=12335.9kbits/s speed=0.0976x    frame=   85 fps=2.4 q=25.0 size=    5376kB time=00:00:03.50 bitrate=12582.7kbits/s speed=0.0986x    frame=   88 fps=2.4 q=25.0 size=    5888kB time=00:00:03.80 bitrate=12693.1kbits/s speed=0.103x    frame=   89 fps=2.4 q=25.0 size=    5888kB time=00:00:03.90 bitrate=12367.6kbits/s speed=0.103x    frame=   92 fps=2.3 q=25.0 size=    6400kB time=00:00:04.20 bitrate=12482.8kbits/s speed=0.103x    frame=   94 fps=2.2 q=25.0 size=    6656kB time=00:00:04.40 bitrate=12392.1kbits/s speed=0.104x    frame=   95 fps=2.2 q=25.0 size=    6656kB time=00:00:04.50 bitrate=12116.7kbits/s speed=0.105x    frame=   96 fps=2.2 q=25.0 size=    6912kB time=00:00:04.60 bitrate=12309.2kbits/s speed=0.105x    frame=   97 fps=2.1 q=25.0 size=    6912kB time=00:00:04.70 bitrate=12047.3kbits/s speed=0.104x    frame=   99 fps=2.1 q=25.0 size=    7168kB time=00:00:04.90 bitrate=11983.6kbits/s speed=0.103x    frame=  101 fps=2.1 q=25.0 size=    7424kB time=00:00:05.10 bitrate=11924.8kbits/s speed=0.105x    frame=  102 fps=2.0 q=25.0 size=    7680kB time=00:00:05.20 bitrate=12098.8kbits/s speed=0.104x    frame=  105 fps=2.0 q=25.0 size=    7936kB time=00:00:05.50 bitrate=11820.2kbits/s speed=0.104x    frame=  107 fps=2.0 q=25.0 size=    8448kB time=00:00:05.70 bitrate=12141.3kbits/s speed=0.107x    frame=  108 fps=2.0 q=25.0 size=    8448kB time=00:00:05.80 bitrate=11931.9kbits/s speed=0.106x    frame=  109 fps=2.0 q=25.0 size=    8704kB time=00:00:05.90 bitrate=12085.1kbits/s speed=0.106x    frame=  110 fps=1.9 q=25.0 size=    8704kB time=00:00:06.00 bitrate=11883.7kbits/s speed=0.106x    frame=  112 fps=1.9 q=25.0 size=    8960kB time=00:00:06.20 bitrate=11838.6kbits/s speed=0.106x    frame=  113 fps=1.9 q=25.0 size=    9216kB time=00:00:06.30 bitrate=11983.6kbits/s speed=0.106x    frame=  114 fps=1.9 q=25.0 size=    9216kB time=00:00:06.40 bitrate=11796.4kbits/s speed=0.107x    frame=  115 fps=1.9 q=25.0 size=    9472kB time=00:00:06.50 bitrate=11937.5kbits/s speed=0.106x    frame=  118 fps=1.9 q=25.0 size=    9984kB time=00:00:06.80 bitrate=12027.7kbits/s speed=0.107x    frame=  121 fps=1.9 q=25.0 size=   10240kB time=00:00:07.10 bitrate=11814.8kbits/s speed=0.109x    frame=  123 fps=1.9 q=25.0 size=   10496kB time=00:00:07.30 bitrate=11778.4kbits/s speed=0.11x    frame=  126 fps=1.9 q=25.0 size=   11008kB time=00:00:07.60 bitrate=11865.4kbits/s speed=0.112x    frame=  128 fps=1.9 q=25.0 size=   11008kB time=00:00:07.80 bitrate=11561.1kbits/s speed=0.113x    frame=  130 fps=1.9 q=25.0 size=   11520kB time=00:00:08.00 bitrate=11796.4kbits/s speed=0.114x    frame=  132 fps=1.8 q=25.0 size=   11776kB time=00:00:08.20 bitrate=11764.4kbits/s speed=0.114x    frame=  133 fps=1.8 q=25.0 size=   12032kB time=00:00:08.30 bitrate=11875.3kbits/s speed=0.114x    frame=  136 fps=1.8 q=25.0 size=   12288kB time=00:00:08.60 bitrate=11704.9kbits/s speed=0.117x    frame=  138 fps=1.9 q=25.0 size=   12544kB time=00:00:08.80 bitrate=11677.2kbits/s speed=0.118x    frame=  140 fps=1.9 q=25.0 size=   12800kB time=00:00:09.00 bitrate=11650.8kbits/s speed=0.12x    frame=  142 fps=1.9 q=25.0 size=   13056kB time=00:00:09.20 bitrate=11625.4kbits/s speed=0.121x    frame=  144 fps=1.9 q=25.0 size=   13312kB time=00:00:09.40 bitrate=11601.2kbits/s speed=0.122x    frame=  145 fps=1.9 q=25.0 size=   13568kB time=00:00:09.50 bitrate=11699.8kbits/s speed=0.121x    frame=  148 fps=1.9 q=25.0 size=   14080kB time=00:00:09.80 bitrate=11769.7kbits/s speed=0.123x    frame=  150 fps=1.9 q=25.0 size=   14080kB time=00:00:10.00 bitrate=11534.3kbits/s speed=0.124x    frame=  153 fps=1.9 q=25.0 size=   14592kB time=00:00:10.30 bitrate=11605.5kbits/s speed=0.125x    frame=  154 fps=1.8 q=25.0 size=   14848kB time=00:00:10.40 bitrate=11695.6kbits/s speed=0.125x    frame=  156 fps=1.8 q=25.0 size=   15104kB time=00:00:10.60 bitrate=11672.8kbits/s speed=0.125x    frame=  157 fps=1.8 q=25.0 size=   15104kB time=00:00:10.70 bitrate=11563.7kbits/s speed=0.126x    frame=  158 fps=1.8 q=25.0 size=   15360kB time=00:00:10.80 bitrate=11650.8kbits/s speed=0.126x    frame=  159 fps=1.8 q=25.0 size=   15616kB time=00:00:10.90 bitrate=11736.3kbits/s speed=0.126x    frame=  162 fps=1.8 q=25.0 size=   15872kB time=00:00:11.20 bitrate=11609.2kbits/s speed=0.127x    frame=  164 fps=1.8 q=25.0 size=   16384kB time=00:00:11.40 bitrate=11773.4kbits/s speed=0.128x    frame=  165 fps=1.8 q=25.0 size=   16384kB time=00:00:11.50 bitrate=11671.0kbits/s speed=0.129x    frame=  166 fps=1.8 q=25.0 size=   16640kB time=00:00:11.60 bitrate=11751.2kbits/s speed=0.127x    frame=  168 fps=1.8 q=25.0 size=   16896kB time=00:00:11.80 bitrate=11729.8kbits/s speed=0.128x    frame=  171 fps=1.8 q=25.0 size=   17152kB time=00:00:12.10 bitrate=11612.3kbits/s speed=0.13x    frame=  173 fps=1.8 q=25.0 size=   17408kB time=00:00:12.30 bitrate=11593.9kbits/s speed=0.13x    frame=  174 fps=1.8 q=25.0 size=   17664kB time=00:00:12.40 bitrate=11669.6kbits/s speed=0.13x    frame=  176 fps=1.8 q=25.0 size=   17920kB time=00:00:12.60 bitrate=11650.8kbits/s speed=0.13x    frame=  177 fps=1.8 q=25.0 size=   17920kB time=00:00:12.70 bitrate=11559.0kbits/s speed=0.129x    frame=  179 fps=1.8 q=25.0 size=   18176kB time=00:00:12.90 bitrate=11542.4kbits/s speed=0.13x    frame=  181 fps=1.8 q=25.0 size=   18688kB time=00:00:13.10 bitrate=11686.4kbits/s speed=0.13x    frame=  182 fps=1.8 q=25.0 size=   18688kB time=00:00:13.20 bitrate=11597.8kbits/s speed=0.131x    frame=  183 fps=1.8 q=25.0 size=   18944kB time=00:00:13.30 bitrate=11668.3kbits/s speed=0.131x    frame=  185 fps=1.8 q=25.0 size=   19200kB time=00:00:13.50 bitrate=11650.8kbits/s speed=0.131x    frame=  187 fps=1.8 q=25.0 size=   19456kB time=00:00:13.70 bitrate=11633.8kbits/s speed=0.131x    frame=  190 fps=1.8 q=25.0 size=   19968kB time=00:00:14.00 bitrate=11684.1kbits/s speed=0.13x    frame=  191 fps=1.8 q=25.0 size=   19968kB time=00:00:14.10 bitrate=11601.2kbits/s speed=0.13x    frame=  193 fps=1.8 q=25.0 size=   20224kB time=00:00:14.30 bitrate=11585.6kbits/s speed=0.13x    frame=  195 fps=1.8 q=25.0 size=   20480kB time=00:00:14.50 bitrate=11570.4kbits/s speed=0.131x    frame=  196 fps=1.7 q=25.0 size=   20736kB time=00:00:14.60 bitrate=11634.8kbits/s speed=0.13x    frame=  198 fps=1.7 q=25.0 size=   20992kB time=00:00:14.80 bitrate=11619.3kbits/s speed=0.13x    frame=  200 fps=1.7 q=25.0 size=   21248kB time=00:00:15.00 bitrate=11604.2kbits/s speed=0.131x    frame=  203 fps=1.8 q=25.0 size=   21760kB time=00:00:15.30 bitrate=11650.8kbits/s speed=0.132x    frame=  204 fps=1.7 q=25.0 size=   21760kB time=00:00:15.40 bitrate=11575.1kbits/s speed=0.132x    frame=  206 fps=1.8 q=25.0 size=   22016kB time=00:00:15.60 bitrate=11561.2kbits/s speed=0.133x    frame=  209 fps=1.8 q=25.0 size=   22528kB time=00:00:15.90 bitrate=11606.8kbits/s speed=0.133x    frame=  212 fps=1.8 q=25.0 size=   22784kB time=00:00:16.20 bitrate=11521.3kbits/s speed=0.135x    frame=  213 fps=1.8 q=25.0 size=   23040kB time=00:00:16.30 bitrate=11579.3kbits/s speed=0.135x    frame=  214 fps=1.8 q=25.0 size=   23040kB time=00:00:16.40 bitrate=11508.7kbits/s speed=0.135x    frame=  215 fps=1.8 q=25.0 size=   23296kB time=00:00:16.50 bitrate=11566.1kbits/s speed=0.135x    frame=  218 fps=1.8 q=25.0 size=   23552kB time=00:00:16.80 bitrate=11484.4kbits/s speed=0.137x    frame=  219 fps=1.8 q=25.0 size=   23808kB time=00:00:16.90 bitrate=11540.5kbits/s speed=0.135x    frame=  220 fps=1.7 q=25.0 size=   23808kB time=00:00:17.00 bitrate=11472.6kbits/s speed=0.135x    frame=  223 fps=1.7 q=25.0 size=   24064kB time=00:00:17.30 bitrate=11394.9kbits/s speed=0.136x    frame=  225 fps=1.8 q=25.0 size=   24320kB time=00:00:17.50 bitrate=11384.5kbits/s speed=0.136x    frame=  226 fps=1.7 q=25.0 size=   24576kB time=00:00:17.60 bitrate=11439.0kbits/s speed=0.136x    frame=  229 fps=1.7 q=25.0 size=   25088kB time=00:00:17.90 bitrate=11481.6kbits/s speed=0.136x    frame=  231 fps=1.7 q=25.0 size=   25344kB time=00:00:18.10 bitrate=11470.6kbits/s speed=0.137x    frame=  232 fps=1.7 q=25.0 size=   25344kB time=00:00:18.20 bitrate=11407.5kbits/s speed=0.137x    frame=  234 fps=1.7 q=25.0 size=   25600kB time=00:00:18.40 bitrate=11397.5kbits/s speed=0.138x    frame=  235 fps=1.7 q=25.0 size=   25856kB time=00:00:18.50 bitrate=11449.3kbits/s speed=0.136x    frame=  237 fps=1.7 q=25.0 size=   26112kB time=00:00:18.70 bitrate=11439.0kbits/s speed=0.137x    frame=  239 fps=1.7 q=25.0 size=   26112kB time=00:00:18.90 bitrate=11317.9kbits/s speed=0.137x    frame=  242 fps=1.7 q=25.0 size=   26624kB time=00:00:19.20 bitrate=11359.5kbits/s speed=0.138x    frame=  243 fps=1.7 q=25.0 size=   26624kB time=00:00:19.30 bitrate=11300.7kbits/s speed=0.138x    frame=  246 fps=1.8 q=25.0 size=   26880kB time=00:00:19.60 bitrate=11234.7kbits/s speed=0.14x    frame=  247 fps=1.7 q=25.0 size=   27136kB time=00:00:19.70 bitrate=11284.1kbits/s speed=0.14x    frame=  250 fps=1.7 q=25.0 size=   27648kB time=00:00:20.00 bitrate=11324.6kbits/s speed=0.139x    frame=  253 fps=1.7 q=25.0 size=   27904kB time=00:00:20.30 bitrate=11260.5kbits/s speed=0.138x    frame=  256 fps=1.7 q=25.0 size=   28416kB time=00:00:20.60 bitrate=11300.2kbits/s speed=0.139x    frame=  257 fps=1.7 q=25.0 size=   28672kB time=00:00:20.70 bitrate=11346.9kbits/s speed=0.139x    frame=  258 fps=1.7 q=25.0 size=   28672kB time=00:00:20.80 bitrate=11292.3kbits/s speed=0.139x    frame=  259 fps=1.7 q=25.0 size=   28928kB time=00:00:20.90 bitrate=11338.6kbits/s speed=0.139x    frame=  261 fps=1.7 q=25.0 size=   29184kB time=00:00:21.10 bitrate=11330.5kbits/s speed=0.139x    frame=  264 fps=1.7 q=22.0 size=   29440kB time=00:00:21.40 bitrate=11269.7kbits/s speed=0.14x    frame=  265 fps=1.7 q=25.0 size=   29696kB time=00:00:21.50 bitrate=11314.8kbits/s speed=0.14x    frame=  269 fps=1.7 q=25.0 size=   30208kB time=00:00:21.90 bitrate=11299.7kbits/s speed=0.141x    frame=  272 fps=1.7 q=25.0 size=   30720kB time=00:00:22.20 bitrate=11335.9kbits/s speed=0.141x    frame=  274 fps=1.7 q=25.0 size=   30976kB time=00:00:22.40 bitrate=11328.3kbits/s speed=0.141x    frame=  276 fps=1.7 q=25.0 size=   31232kB time=00:00:22.60 bitrate=11320.9kbits/s speed=0.141x    frame=  277 fps=1.7 q=25.0 size=   31488kB time=00:00:22.70 bitrate=11363.4kbits/s speed=0.141x    frame=  280 fps=1.7 q=25.0 size=   31744kB time=00:00:23.00 bitrate=11306.4kbits/s speed=0.142x    frame=  281 fps=1.7 q=25.0 size=   32000kB time=00:00:23.10 bitrate=11348.2kbits/s speed=0.142x    frame=  282 fps=1.7 q=25.0 size=   32000kB time=00:00:23.20 bitrate=11299.3kbits/s speed=0.141x    frame=  285 fps=1.7 q=25.0 size=   32512kB time=00:00:23.50 bitrate=11333.5kbits/s speed=0.141x    frame=  287 fps=1.7 q=25.0 size=   32768kB time=00:00:23.70 bitrate=11326.4kbits/s speed=0.142x    frame=  289 fps=1.7 q=25.0 size=   33024kB time=00:00:23.90 bitrate=11319.3kbits/s speed=0.142x    frame=  290 fps=1.7 q=25.0 size=   33280kB time=00:00:24.00 bitrate=11359.5kbits/s speed=0.142x    frame=  291 fps=1.7 q=25.0 size=   33536kB time=00:00:24.10 bitrate=11399.4kbits/s speed=0.142x    frame=  293 fps=1.7 q=25.0 size=   33792kB time=00:00:24.30 bitrate=11391.9kbits/s speed=0.142x    frame=  295 fps=1.7 q=25.0 size=   34048kB time=00:00:24.50 bitrate=11384.5kbits/s speed=0.142x    frame=  298 fps=1.7 q=25.0 size=   34304kB time=00:00:24.80 bitrate=11331.4kbits/s speed=0.143x    frame=  300 fps=1.7 q=25.0 size=   34560kB time=00:00:25.00 bitrate=11324.6kbits/s speed=0.143x    frame=  300 fps=1.6 q=-1.0 Lsize=   41007kB time=00:00:29.70 bitrate=11310.7kbits/s speed=0.158x    
video:41002kB audio:0kB subtitle:0kB other streams:0kB global headers:0kB muxing overhead: 0.011587%
[libx264 @ 0x5d9470a3a400] frame I:3     Avg QP:19.83  size:251942
[libx264 @ 0x5d9470a3a400] frame P:86    Avg QP:22.35  size:161685
[libx264 @ 0x5d9470a3a400] frame B:211   Avg QP:23.38  size:129501
[libx264 @ 0x5d9470a3a400] consecutive B-frames:  3.7%  6.0%  5.0% 85.3%
[libx264 @ 0x5d9470a3a400] mb I  I16..4: 19.1% 41.6% 39.4%
[libx264 @ 0x5d9470a3a400] mb P  I16..4: 23.1% 35.7% 15.8%  P16..4: 10.0%  7.0%  2.7%  0.0%  0.0%    skip: 5.6%
[libx264 @ 0x5d9470a3a400] mb B  I16..4: 15.2% 23.3% 11.4%  B16..8: 21.3%  7.8%  2.4%  direct: 6.9%  skip:11.6%  L0:61.3% L1:23.2% BI:15.5%
[libx264 @ 0x5d9470a3a400] 8x8 transform intra:47.0% inter:54.7%
[libx264 @ 0x5d9470a3a400] coded y,uvDC,uvAC intra: 91.8% 93.6% 58.8% inter: 56.0% 61.6% 3.4%
[libx264 @ 0x5d9470a3a400] i16 v,h,dc,p: 20% 10% 60% 10%
[libx264 @ 0x5d9470a3a400] i8 v,h,dc,ddl,ddr,vr,hd,vl,hu: 33% 10% 23%  4%  5%  8%  3%  8%  6%
[libx264 @ 0x5d9470a3a400] i4 v,h,dc,ddl,ddr,vr,hd,vl,hu: 44% 12% 20%  4%  4%  6%  2%  5%  3%
[libx264 @ 0x5d9470a3a400] i8c dc,h,v,p: 48% 12% 33%  7%
[libx264 @ 0x5d9470a3a400] Weighted P-Frames: Y:0.0% UV:0.0%
[libx264 @ 0x5d9470a3a400] ref P L0: 49.1% 13.8% 22.3% 14.8%
[libx264 @ 0x5d9470a3a400] ref B L0: 84.5% 11.1%  4.5%
[libx264 @ 0x5d9470a3a400] ref B L1: 92.5%  7.5%
[libx264 @ 0x5d9470a3a400] kb/s:11196.12
 Clip criado: /home/paulo/sportscuts/agents/TakeVideoProject/pending/2_clip_20250901_201233.mp4
Sinalizador criado: 2_clip_20250901_201233.done
 Metadata criada: 2_clip_20250901_201233.json
